<svg width="800" height="420" viewBox="0 0 800 420" xmlns="http://www.w3.org/2000/svg" font-family="'Courier New',monospace">
  <rect width="800" height="420" rx="12" fill="#0d1117" stroke="#21262d" stroke-width="1"/>
  <!-- titlebar -->
  <rect width="800" height="40" rx="12" fill="#161b22"/>
  <rect y="28" width="800" height="12" fill="#161b22"/>
  <rect x="1" y="39" width="798" height="1" fill="#21262d"/>
  <circle cx="20" cy="20" r="6" fill="#ff5f57"/>
  <circle cx="40" cy="20" r="6" fill="#febc2e"/>
  <circle cx="60" cy="20" r="6" fill="#28c840"/>
  <text x="400" y="25" text-anchor="middle" fill="#8b949e" font-size="12" letter-spacing="1">sahal111@github — % ./profile --live</text>
  <rect x="690" y="10" width="95" height="20" rx="3" fill="#1a0000" stroke="#ff444444"/>
  <text x="737" y="24" text-anchor="middle" fill="#ff4444" font-size="11" letter-spacing="1">● SCANNING</text>

  <!-- divider portrait/info -->
  <rect x="220" y="40" width="1" height="370" fill="#21262d"/>

  <!-- PORTRAIT SECTION -->
  <!-- ASCII-style person silhouette using rects -->
  <!-- Head -->
  <rect x="80" y="60" width="60" height="55" rx="8" fill="none" stroke="#1a6e2e" stroke-width="0.8"/>
  <!-- Hair/top -->
  <rect x="82" y="62" width="56" height="12" rx="4" fill="#1a6e2e"/>
  <!-- Eyes -->
  <rect x="92" y="82" width="8" height="5" rx="2" fill="#1a6e2e"/>
  <rect x="118" y="82" width="8" height="5" rx="2" fill="#1a6e2e"/>
  <!-- Glasses frames -->
  <rect x="88" y="79" width="16" height="11" rx="3" fill="none" stroke="#238636" stroke-width="1"/>
  <rect x="114" y="79" width="16" height="11" rx="3" fill="none" stroke="#238636" stroke-width="1"/>
  <line x1="104" y1="84" x2="114" y2="84" stroke="#238636" stroke-width="1"/>
  <!-- Nose/mouth hint -->
  <rect x="107" y="96" width="6" height="3" rx="1" fill="#1a6e2e"/>
  <rect x="100" y="103" width="20" height="3" rx="1" fill="#1a6e2e"/>
  <!-- Neck -->
  <rect x="100" y="115" width="20" height="10" fill="#0d2818"/>
  <!-- Shoulders / body -->
  <rect x="55" y="125" width="110" height="65" rx="4" fill="none" stroke="#1a6e2e" stroke-width="0.8"/>
  <!-- Chest/torso fill lines -->
  <rect x="57" y="127" width="106" height="3" fill="#0a1f0f" opacity="0.8"/>
  <rect x="57" y="133" width="106" height="3" fill="#0a1f0f" opacity="0.6"/>
  <rect x="57" y="139" width="106" height="3" fill="#0a1f0f" opacity="0.5"/>
  <rect x="57" y="145" width="106" height="3" fill="#0a1f0f" opacity="0.4"/>
  <rect x="57" y="151" width="106" height="3" fill="#0a1f0f" opacity="0.3"/>
  <rect x="57" y="157" width="106" height="3" fill="#0a1f0f" opacity="0.2"/>
  <rect x="57" y="163" width="106" height="3" fill="#0a1f0f" opacity="0.15"/>
  <rect x="57" y="169" width="106" height="3" fill="#0a1f0f" opacity="0.1"/>
  <!-- Arms crossed lines -->
  <line x1="55" y1="145" x2="90" y2="168" stroke="#1a6e2e" stroke-width="1.5"/>
  <line x1="165" y1="145" x2="130" y2="168" stroke="#1a6e2e" stroke-width="1.5"/>
  <line x1="75" y1="168" x2="145" y2="168" stroke="#1a6e2e" stroke-width="1.2"/>
  <!-- Pixel scan lines across portrait -->
  <rect x="40" y="200" width="165" height="1" fill="#238636" opacity="0.3"/>
  <rect x="40" y="210" width="165" height="1" fill="#238636" opacity="0.2"/>

  <!-- label -->
  <text x="110" y="220" text-anchor="middle" fill="#30363d" font-size="9" letter-spacing="2">VISUAL.MAP / PORTRAIT.SIGNAL</text>

  <!-- INFO SECTION -->
  <text x="240" y="70" fill="#00ff41" font-size="12" font-weight="bold" letter-spacing="1">SYSTEM.INFO / PROFILE.DATA</text>
  <text x="240" y="86" fill="#21262d" font-size="10">@Sahal111 ─────────────────────────────────────────</text>

  <text x="240" y="104" fill="#00cc33" font-size="11">. Name:</text>
  <text x="330" y="104" fill="#c9d1d9" font-size="11">........ Sahal (X_proff)</text>
  <text x="240" y="118" fill="#00cc33" font-size="11">. Role:</text>
  <text x="330" y="118" fill="#58a6ff" font-size="11">........ Full-Stack Developer</text>
  <text x="240" y="132" fill="#00cc33" font-size="11">. Base:</text>
  <text x="330" y="132" fill="#c9d1d9" font-size="11">........ Indonesia 🇮🇩</text>
  <text x="240" y="146" fill="#00cc33" font-size="11">. Status:</text>
  <text x="330" y="146" fill="#39d353" font-size="11">....... Building / Shipping</text>

  <text x="240" y="168" fill="#58a6ff" font-size="12" font-weight="bold" letter-spacing="1">TECH.STACK ─────────────────────────────────</text>
  <text x="240" y="184" fill="#00cc33" font-size="11">. Frontend:</text>
  <text x="330" y="184" fill="#58a6ff" font-size="11">...... React / JavaScript / Tailwind</text>
  <text x="240" y="198" fill="#00cc33" font-size="11">. Backend:</text>
  <text x="330" y="198" fill="#58a6ff" font-size="11">....... Laravel / PHP / Node.js</text>
  <text x="240" y="212" fill="#00cc33" font-size="11">. AI/ML:</text>
  <text x="330" y="212" fill="#c9d1d9" font-size="11">......... Python / Jupyter Notebook</text>
  <text x="240" y="226" fill="#00cc33" font-size="11">. Database:</text>
  <text x="330" y="226" fill="#c9d1d9" font-size="11">...... MySQL / PostgreSQL</text>
  <text x="240" y="240" fill="#00cc33" font-size="11">. Tools:</text>
  <text x="330" y="240" fill="#c9d1d9" font-size="11">......... Git / VSCode / Figma / Postman</text>

  <text x="240" y="262" fill="#3fb950" font-size="12" font-weight="bold" letter-spacing="1">BUILD.LOG ──────────────────────────────────</text>
  <text x="240" y="278" fill="#00cc33" font-size="11">. sneakershead:</text>
  <text x="345" y="278" fill="#c9d1d9" font-size="11">... E-commerce app (Blade)</text>
  <text x="240" y="292" fill="#00cc33" font-size="11">. UTS_ML_Sahal:</text>
  <text x="345" y="292" fill="#c9d1d9" font-size="11">... Machine Learning project</text>
  <text x="240" y="306" fill="#00cc33" font-size="11">. Challenge_Frontend:</text>
  <text x="375" y="306" fill="#c9d1d9" font-size="11"> React challenge</text>
  <text x="240" y="320" fill="#00cc33" font-size="11">. RPL_Group1:</text>
  <text x="345" y="320" fill="#39d353" font-size="11">....... 16 commits this month 🔥</text>

  <text x="240" y="342" fill="#d29922" font-size="12" font-weight="bold" letter-spacing="1">GRID.LINKS ─────────────────────────────────</text>
  <text x="240" y="358" fill="#00cc33" font-size="11">. GitHub:</text>
  <text x="330" y="358" fill="#58a6ff" font-size="11">........ github.com/Sahal111</text>
  <text x="240" y="372" fill="#00cc33" font-size="11">. Contributions:</text>
  <text x="355" y="372" fill="#39d353" font-size="11">. 270+ in 2026</text>

  <!-- cursor blink -->
  <text x="240" y="395" fill="#238636" font-size="11">signal.locked &gt; PROFILE / BUILD / SHARE</text>
  <rect x="583" y="383" width="8" height="13" fill="#00ff41">
    <animate attributeName="opacity" values="1;0;1" dur="1s" repeatCount="indefinite"/>
  </rect>

  <!-- footer -->
  <rect x="0" y="402" width="800" height="18" rx="0" fill="#0a0f14"/>
  <rect x="0" y="402" width="800" height="1" fill="#21262d"/>
  <rect x="0" y="408" width="800" height="12" fill="#0a0f14" rx="0"/>
  <text x="400" y="415" text-anchor="middle" fill="#30363d" font-size="9" letter-spacing="3">REACT / LARAVEL / PYTHON / MACHINE.LEARNING / FULL.STACK</text>
  <!-- bottom corners fix -->
  <rect x="0" y="408" width="12" height="12" fill="#0a0f14"/>
  <rect x="788" y="408" width="12" height="12" fill="#0a0f14"/>
</svg>
